<?xml version="1.0" encoding="UTF-8" standalone="no"?>
<!DOCTYPE svg PUBLIC "-//W3C//DTD SVG 1.1//EN"
 "http://www.w3.org/Graphics/SVG/1.1/DTD/svg11.dtd">
<!-- Generated by graphviz version 2.44.0 (0)
 -->
<!-- Title: waterMachine Pages: 1 -->
<svg width="838pt" height="1136pt"
 viewBox="0.00 0.00 838.23 1135.85" xmlns="http://www.w3.org/2000/svg" xmlns:xlink="http://www.w3.org/1999/xlink">
<g id="graph0" class="graph" transform="scale(1 1) rotate(0) translate(4 1131.85)">
<title>waterMachine</title>
<polygon fill="white" stroke="transparent" points="-4,4 -4,-1131.85 834.23,-1131.85 834.23,4 -4,4"/>
<!-- InitialState -->
<g id="node1" class="node">
<title>InitialState</title>
<ellipse fill="none" stroke="black" cx="431" cy="-1074.45" rx="49.3" ry="49.3"/>
<ellipse fill="none" stroke="black" cx="431" cy="-1074.45" rx="53.29" ry="53.29"/>
<text text-anchor="middle" x="431" y="-1070.75" font-family="Times,serif" font-size="14.00">InitialState</text>
</g>
<!-- Liquid -->
<g id="node6" class="node">
<title>Liquid</title>
<ellipse fill="darkslategrey" stroke="black" cx="431" cy="-950.61" rx="34.39" ry="34.39"/>
<text text-anchor="middle" x="431" y="-946.91" font-family="Times,serif" font-size="14.00" fill="white">Liquid</text>
</g>
<!-- InitialState&#45;&gt;Liquid -->
<g id="edge1" class="edge">
<title>InitialState&#45;&gt;Liquid</title>
<path fill="none" stroke="black" d="M431,-1020.85C429,-1020.85 429,-995.35 431,-995.35"/>
<path fill="none" stroke="transparent" d="M431,-1020.85C431,-1020.85 431,-995.35 431,-995.35"/>
<path fill="none" stroke="black" d="M431,-1020.85C433,-1020.85 433,-995.35 431,-995.35"/>
<polygon fill="black" stroke="black" points="434.5,-995.35 431,-985.35 427.5,-995.35 434.5,-995.35"/>
<text text-anchor="middle" x="401" y="-996.9" font-family="Times,serif" font-size="14.00">entry point</text>
</g>
<!-- Exit -->
<g id="node2" class="node">
<title>Exit</title>
<ellipse fill="none" stroke="black" cx="614" cy="-123.52" rx="25.22" ry="25.22"/>
<ellipse fill="none" stroke="black" cx="614" cy="-123.52" rx="29.2" ry="29.2"/>
<text text-anchor="middle" x="614" y="-119.82" font-family="Times,serif" font-size="14.00">Exit</text>
</g>
<!-- Plasma -->
<g id="node3" class="node">
<title>Plasma</title>
<ellipse fill="darkslategrey" stroke="black" cx="127" cy="-337.26" rx="36.29" ry="36.29"/>
<text text-anchor="middle" x="127" y="-333.56" font-family="Times,serif" font-size="14.00" fill="white">Plasma</text>
</g>
<!-- Plasma_OutOfWater -->
<g id="node13" class="node">
<title>Plasma_OutOfWater</title>
<path fill="coral" stroke="black" d="M115.5,-261.42C115.5,-261.42 11.5,-230.3 11.5,-230.3 5.75,-228.58 5.75,-225.14 11.5,-223.42 11.5,-223.42 115.5,-192.3 115.5,-192.3 121.25,-190.58 132.75,-190.58 138.5,-192.3 138.5,-192.3 242.5,-223.42 242.5,-223.42 248.25,-225.14 248.25,-228.58 242.5,-230.3 242.5,-230.3 138.5,-261.42 138.5,-261.42 132.75,-263.14 121.25,-263.14 115.5,-261.42"/>
<text text-anchor="middle" x="127" y="-230.66" font-family="Times,serif" font-size="14.00">OutOfWater</text>
<text text-anchor="middle" x="127" y="-215.66" font-family="Times,serif" font-size="14.00">len(tempFeed) == 0</text>
</g>
<!-- Plasma&#45;&gt;Plasma_OutOfWater -->
<g id="edge2" class="edge">
<title>Plasma&#45;&gt;Plasma_OutOfWater</title>
<path fill="none" stroke="black" stroke-width="2" d="M127,-300.81C127,-300.81 127,-275.17 127,-275.17"/>
<polygon fill="black" stroke="black" stroke-width="2" points="130.5,-275.17 127,-265.17 123.5,-275.17 130.5,-275.17"/>
<text text-anchor="middle" x="108" y="-276.79" font-family="Times,serif" font-size="14.00">always</text>
</g>
<!-- Gas -->
<g id="node4" class="node">
<title>Gas</title>
<ellipse fill="darkslategrey" stroke="black" cx="605" cy="-644.91" rx="24.9" ry="24.9"/>
<text text-anchor="middle" x="605" y="-641.21" font-family="Times,serif" font-size="14.00" fill="white">Gas</text>
</g>
<!-- Gas_OutOfWater -->
<g id="node14" class="node">
<title>Gas_OutOfWater</title>
<path fill="coral" stroke="black" d="M593.5,-576.38C593.5,-576.38 489.5,-545.26 489.5,-545.26 483.75,-543.54 483.75,-540.1 489.5,-538.38 489.5,-538.38 593.5,-507.26 593.5,-507.26 599.25,-505.54 610.75,-505.54 616.5,-507.26 616.5,-507.26 720.5,-538.38 720.5,-538.38 726.25,-540.1 726.25,-543.54 720.5,-545.26 720.5,-545.26 616.5,-576.38 616.5,-576.38 610.75,-578.1 599.25,-578.1 593.5,-576.38"/>
<text text-anchor="middle" x="605" y="-545.62" font-family="Times,serif" font-size="14.00">OutOfWater</text>
<text text-anchor="middle" x="605" y="-530.62" font-family="Times,serif" font-size="14.00">len(tempFeed) == 0</text>
</g>
<!-- Gas&#45;&gt;Gas_OutOfWater -->
<g id="edge5" class="edge">
<title>Gas&#45;&gt;Gas_OutOfWater</title>
<path fill="none" stroke="black" stroke-width="2" d="M613.23,-621.52C613.23,-621.52 613.23,-587.67 613.23,-587.67"/>
<polygon fill="black" stroke="black" stroke-width="2" points="616.73,-587.67 613.23,-577.67 609.73,-587.67 616.73,-587.67"/>
<text text-anchor="middle" x="594.23" y="-608.39" font-family="Times,serif" font-size="14.00">always</text>
</g>
<!-- Solid -->
<g id="node5" class="node">
<title>Solid</title>
<ellipse fill="darkslategrey" stroke="black" cx="714" cy="-337.26" rx="29.5" ry="29.5"/>
<text text-anchor="middle" x="714" y="-333.56" font-family="Times,serif" font-size="14.00" fill="white">Solid</text>
</g>
<!-- Solid_OutOfWater -->
<g id="node15" class="node">
<title>Solid_OutOfWater</title>
<path fill="coral" stroke="black" d="M602.5,-261.42C602.5,-261.42 498.5,-230.3 498.5,-230.3 492.75,-228.58 492.75,-225.14 498.5,-223.42 498.5,-223.42 602.5,-192.3 602.5,-192.3 608.25,-190.58 619.75,-190.58 625.5,-192.3 625.5,-192.3 729.5,-223.42 729.5,-223.42 735.25,-225.14 735.25,-228.58 729.5,-230.3 729.5,-230.3 625.5,-261.42 625.5,-261.42 619.75,-263.14 608.25,-263.14 602.5,-261.42"/>
<text text-anchor="middle" x="614" y="-230.66" font-family="Times,serif" font-size="14.00">OutOfWater</text>
<text text-anchor="middle" x="614" y="-215.66" font-family="Times,serif" font-size="14.00">len(tempFeed) == 0</text>
</g>
<!-- Solid&#45;&gt;Solid_OutOfWater -->
<g id="edge12" class="edge">
<title>Solid&#45;&gt;Solid_OutOfWater</title>
<path fill="none" stroke="black" stroke-width="2" d="M712.88,-307.97C712.88,-307.97 712.88,-245.42 712.88,-245.42"/>
<polygon fill="black" stroke="black" stroke-width="2" points="716.38,-245.42 712.88,-235.42 709.38,-245.42 716.38,-245.42"/>
<text text-anchor="middle" x="693.88" y="-280.49" font-family="Times,serif" font-size="14.00">always</text>
</g>
<!-- Liquid_OutOfWater -->
<g id="node16" class="node">
<title>Liquid_OutOfWater</title>
<path fill="coral" stroke="black" d="M593.5,-876.72C593.5,-876.72 489.5,-845.6 489.5,-845.6 483.75,-843.88 483.75,-840.44 489.5,-838.72 489.5,-838.72 593.5,-807.6 593.5,-807.6 599.25,-805.88 610.75,-805.88 616.5,-807.6 616.5,-807.6 720.5,-838.72 720.5,-838.72 726.25,-840.44 726.25,-843.88 720.5,-845.6 720.5,-845.6 616.5,-876.72 616.5,-876.72 610.75,-878.44 599.25,-878.44 593.5,-876.72"/>
<text text-anchor="middle" x="605" y="-845.96" font-family="Times,serif" font-size="14.00">OutOfWater</text>
<text text-anchor="middle" x="605" y="-830.96" font-family="Times,serif" font-size="14.00">len(tempFeed) == 0</text>
</g>
<!-- Liquid&#45;&gt;Liquid_OutOfWater -->
<g id="edge19" class="edge">
<title>Liquid&#45;&gt;Liquid_OutOfWater</title>
<path fill="none" stroke="black" stroke-width="2" d="M438.66,-916.84C438.66,-884.96 438.66,-842 438.66,-842 438.66,-842 468.51,-842 468.51,-842"/>
<polygon fill="black" stroke="black" stroke-width="2" points="468.51,-845.5 478.51,-842 468.51,-838.5 468.51,-845.5"/>
<text text-anchor="middle" x="419.66" y="-868.3" font-family="Times,serif" font-size="14.00">always</text>
</g>
<!-- Gas_Below0 -->
<g id="node7" class="node">
<title>Gas_Below0</title>
<path fill="lightsteelblue" stroke="black" d="M710.06,-434.71C710.06,-434.71 710.06,-442.77 710.06,-442.77 710.06,-446.8 706.56,-452.82 703.07,-454.82 703.07,-454.82 687.14,-463.91 687.14,-463.91 683.65,-465.91 676.12,-467.91 672.1,-467.91 672.1,-467.91 645.9,-467.91 645.9,-467.91 641.88,-467.91 634.35,-465.91 630.86,-463.91 630.86,-463.91 614.93,-454.82 614.93,-454.82 611.44,-452.82 607.94,-446.8 607.94,-442.77 607.94,-442.77 607.94,-434.71 607.94,-434.71 607.94,-430.69 611.44,-424.66 614.93,-422.66 614.93,-422.66 630.86,-413.57 630.86,-413.57 634.35,-411.57 641.88,-409.57 645.9,-409.57 645.9,-409.57 672.1,-409.57 672.1,-409.57 676.12,-409.57 683.65,-411.57 687.14,-413.57 687.14,-413.57 703.07,-422.66 703.07,-422.66 706.56,-424.66 710.06,-430.69 710.06,-434.71"/>
<text text-anchor="middle" x="659" y="-442.54" font-family="Times,serif" font-size="14.00">Below0</text>
<text text-anchor="middle" x="659" y="-427.54" font-family="Times,serif" font-size="14.00">temp &lt; 0</text>
</g>
<!-- Gas_Below0&#45;&gt;Solid -->
<g id="edge8" class="edge">
<title>Gas_Below0&#45;&gt;Solid</title>
<path fill="none" stroke="black" stroke-dasharray="5,2" d="M697.52,-419.17C697.52,-419.17 697.52,-371.42 697.52,-371.42"/>
<polygon fill="black" stroke="black" points="701.02,-371.42 697.52,-361.42 694.02,-371.42 701.02,-371.42"/>
<text text-anchor="middle" x="686.52" y="-384.1" font-family="Times,serif" font-size="14.00">true</text>
</g>
<!-- Gas_Between0and100 -->
<g id="node8" class="node">
<title>Gas_Between0and100</title>
<path fill="lightsteelblue" stroke="black" d="M551.86,-333.23C551.86,-333.23 551.86,-341.29 551.86,-341.29 551.86,-345.31 547.94,-350.29 544.03,-351.23 544.03,-351.23 488.89,-364.54 488.89,-364.54 484.98,-365.48 477.03,-366.43 473.01,-366.43 473.01,-366.43 388.99,-366.43 388.99,-366.43 384.97,-366.43 377.02,-365.48 373.11,-364.54 373.11,-364.54 317.97,-351.23 317.97,-351.23 314.06,-350.29 310.14,-345.31 310.14,-341.29 310.14,-341.29 310.14,-333.23 310.14,-333.23 310.14,-329.21 314.06,-324.23 317.97,-323.29 317.97,-323.29 373.11,-309.98 373.11,-309.98 377.02,-309.04 384.97,-308.09 388.99,-308.09 388.99,-308.09 473.01,-308.09 473.01,-308.09 477.03,-308.09 484.98,-309.04 488.89,-309.98 488.89,-309.98 544.03,-323.29 544.03,-323.29 547.94,-324.23 551.86,-329.21 551.86,-333.23"/>
<text text-anchor="middle" x="431" y="-341.06" font-family="Times,serif" font-size="14.00">Between0and100</text>
<text text-anchor="middle" x="431" y="-326.06" font-family="Times,serif" font-size="14.00">0 &lt; temp and temp &lt; 100</text>
</g>
<!-- Gas_Below0&#45;&gt;Gas_Between0and100 -->
<g id="edge9" class="edge">
<title>Gas_Below0&#45;&gt;Gas_Between0and100</title>
<path fill="none" stroke="black" stroke-dasharray="1,5" d="M607.81,-438C566.41,-438 514.96,-438 514.96,-438 514.96,-438 514.96,-368.62 514.96,-368.62"/>
<polygon fill="black" stroke="black" points="518.46,-368.62 514.96,-358.62 511.46,-368.62 518.46,-368.62"/>
<text text-anchor="middle" x="513.7" y="-441.8" font-family="Times,serif" font-size="14.00">false</text>
</g>
<!-- Gas_Between0and100&#45;&gt;Gas -->
<g id="edge11" class="edge">
<title>Gas_Between0and100&#45;&gt;Gas</title>
<path fill="none" stroke="black" d="M468.86,-366.37C468.86,-433.02 468.86,-591 468.86,-591 468.86,-591 596.77,-591 596.77,-591 596.77,-591 596.77,-611.42 596.77,-611.42"/>
<polygon fill="black" stroke="black" points="593.27,-611.42 596.77,-621.42 600.27,-611.42 593.27,-611.42"/>
<text text-anchor="middle" x="449.86" y="-556.65" font-family="Times,serif" font-size="14.00">default</text>
</g>
<!-- Gas_Between0and100&#45;&gt;Liquid -->
<g id="edge10" class="edge">
<title>Gas_Between0and100&#45;&gt;Liquid</title>
<path fill="none" stroke="black" stroke-dasharray="5,2" d="M417.61,-366.43C417.61,-366.43 417.61,-908.7 417.61,-908.7"/>
<polygon fill="black" stroke="black" points="414.11,-908.7 417.61,-918.7 421.11,-908.7 414.11,-908.7"/>
<text text-anchor="middle" x="406.61" y="-641.37" font-family="Times,serif" font-size="14.00">true</text>
</g>
<!-- Solid_Between0and100 -->
<g id="node9" class="node">
<title>Solid_Between0and100</title>
<path fill="lightsteelblue" stroke="black" d="M566.86,-119.49C566.86,-119.49 566.86,-127.54 566.86,-127.54 566.86,-131.57 562.94,-136.54 559.03,-137.49 559.03,-137.49 503.89,-150.79 503.89,-150.79 499.98,-151.74 492.03,-152.68 488.01,-152.68 488.01,-152.68 403.99,-152.68 403.99,-152.68 399.97,-152.68 392.02,-151.74 388.11,-150.79 388.11,-150.79 332.97,-137.49 332.97,-137.49 329.06,-136.54 325.14,-131.57 325.14,-127.54 325.14,-127.54 325.14,-119.49 325.14,-119.49 325.14,-115.46 329.06,-110.49 332.97,-109.54 332.97,-109.54 388.11,-96.24 388.11,-96.24 392.02,-95.29 399.97,-94.35 403.99,-94.35 403.99,-94.35 488.01,-94.35 488.01,-94.35 492.03,-94.35 499.98,-95.29 503.89,-96.24 503.89,-96.24 559.03,-109.54 559.03,-109.54 562.94,-110.49 566.86,-115.46 566.86,-119.49"/>
<text text-anchor="middle" x="446" y="-127.32" font-family="Times,serif" font-size="14.00">Between0and100</text>
<text text-anchor="middle" x="446" y="-112.32" font-family="Times,serif" font-size="14.00">0 &lt; temp and temp &lt; 100</text>
</g>
<!-- Solid_Between0and100&#45;&gt;Liquid -->
<g id="edge15" class="edge">
<title>Solid_Between0and100&#45;&gt;Liquid</title>
<path fill="none" stroke="black" stroke-dasharray="5,2" d="M380.25,-149C334.64,-149 282.04,-149 282.04,-149 282.04,-149 282.04,-950 282.04,-950 282.04,-950 386.45,-950 386.45,-950"/>
<polygon fill="black" stroke="black" points="386.45,-953.5 396.45,-950 386.45,-946.5 386.45,-953.5"/>
<text text-anchor="middle" x="271.04" y="-556.4" font-family="Times,serif" font-size="14.00">true</text>
</g>
<!-- Solid_Over100 -->
<g id="node10" class="node">
<title>Solid_Over100</title>
<path fill="lightsteelblue" stroke="black" d="M830.46,-25.06C830.46,-25.06 830.46,-33.11 830.46,-33.11 830.46,-37.14 826.82,-42.89 823.18,-44.62 823.18,-44.62 801.73,-54.8 801.73,-54.8 798.1,-56.53 790.43,-58.25 786.4,-58.25 786.4,-58.25 751.6,-58.25 751.6,-58.25 747.57,-58.25 739.9,-56.53 736.27,-54.8 736.27,-54.8 714.82,-44.62 714.82,-44.62 711.18,-42.89 707.54,-37.14 707.54,-33.11 707.54,-33.11 707.54,-25.06 707.54,-25.06 707.54,-21.03 711.18,-15.28 714.82,-13.55 714.82,-13.55 736.27,-3.37 736.27,-3.37 739.9,-1.64 747.57,0.08 751.6,0.08 751.6,0.08 786.4,0.08 786.4,0.08 790.43,0.08 798.1,-1.64 801.73,-3.37 801.73,-3.37 823.18,-13.55 823.18,-13.55 826.82,-15.28 830.46,-21.03 830.46,-25.06"/>
<text text-anchor="middle" x="769" y="-32.88" font-family="Times,serif" font-size="14.00">Over100</text>
<text text-anchor="middle" x="769" y="-17.88" font-family="Times,serif" font-size="14.00">100 &lt; temp</text>
</g>
<!-- Solid_Between0and100&#45;&gt;Solid_Over100 -->
<g id="edge16" class="edge">
<title>Solid_Between0and100&#45;&gt;Solid_Over100</title>
<path fill="none" stroke="black" stroke-dasharray="1,5" d="M446,-94.39C446,-66.62 446,-29 446,-29 446,-29 697.49,-29 697.49,-29"/>
<polygon fill="black" stroke="black" points="697.49,-32.5 707.49,-29 697.49,-25.5 697.49,-32.5"/>
<text text-anchor="middle" x="526.05" y="-32.8" font-family="Times,serif" font-size="14.00">false</text>
</g>
<!-- Solid_Over100&#45;&gt;Gas -->
<g id="edge17" class="edge">
<title>Solid_Over100&#45;&gt;Gas</title>
<path fill="none" stroke="black" stroke-dasharray="5,2" d="M812.83,-49.54C812.83,-156.24 812.83,-644 812.83,-644 812.83,-644 640.07,-644 640.07,-644"/>
<polygon fill="black" stroke="black" points="640.07,-640.5 630.07,-644 640.07,-647.5 640.07,-640.5"/>
<text text-anchor="middle" x="801.83" y="-436.95" font-family="Times,serif" font-size="14.00">true</text>
</g>
<!-- Solid_Over100&#45;&gt;Solid -->
<g id="edge18" class="edge">
<title>Solid_Over100&#45;&gt;Solid</title>
<path fill="none" stroke="black" d="M795.44,-58.05C795.44,-134.7 795.44,-337 795.44,-337 795.44,-337 753.4,-337 753.4,-337"/>
<polygon fill="black" stroke="black" points="753.4,-333.5 743.4,-337 753.4,-340.5 753.4,-333.5"/>
<text text-anchor="middle" x="776.44" y="-222.34" font-family="Times,serif" font-size="14.00">default</text>
</g>
<!-- Liquid_Over100 -->
<g id="node11" class="node">
<title>Liquid_Over100</title>
<path fill="lightsteelblue" stroke="black" d="M666.46,-735.05C666.46,-735.05 666.46,-743.1 666.46,-743.1 666.46,-747.13 662.82,-752.89 659.18,-754.61 659.18,-754.61 637.73,-764.79 637.73,-764.79 634.1,-766.52 626.43,-768.24 622.4,-768.24 622.4,-768.24 587.6,-768.24 587.6,-768.24 583.57,-768.24 575.9,-766.52 572.27,-764.79 572.27,-764.79 550.82,-754.61 550.82,-754.61 547.18,-752.89 543.54,-747.13 543.54,-743.1 543.54,-743.1 543.54,-735.05 543.54,-735.05 543.54,-731.02 547.18,-725.27 550.82,-723.54 550.82,-723.54 572.27,-713.36 572.27,-713.36 575.9,-711.64 583.57,-709.91 587.6,-709.91 587.6,-709.91 622.4,-709.91 622.4,-709.91 626.43,-709.91 634.1,-711.64 637.73,-713.36 637.73,-713.36 659.18,-723.54 659.18,-723.54 662.82,-725.27 666.46,-731.02 666.46,-735.05"/>
<text text-anchor="middle" x="605" y="-742.88" font-family="Times,serif" font-size="14.00">Over100</text>
<text text-anchor="middle" x="605" y="-727.88" font-family="Times,serif" font-size="14.00">100 &lt; temp</text>
</g>
<!-- Liquid_Over100&#45;&gt;Gas -->
<g id="edge22" class="edge">
<title>Liquid_Over100&#45;&gt;Gas</title>
<path fill="none" stroke="black" stroke-dasharray="5,2" d="M605,-709.8C605,-709.8 605,-679.73 605,-679.73"/>
<polygon fill="black" stroke="black" points="608.5,-679.73 605,-669.73 601.5,-679.73 608.5,-679.73"/>
<text text-anchor="middle" x="594" y="-698.56" font-family="Times,serif" font-size="14.00">true</text>
</g>
<!-- Liquid_Below0 -->
<g id="node12" class="node">
<title>Liquid_Below0</title>
<path fill="lightsteelblue" stroke="black" d="M562.06,-640.88C562.06,-640.88 562.06,-648.94 562.06,-648.94 562.06,-652.96 558.56,-658.99 555.07,-660.99 555.07,-660.99 539.14,-670.08 539.14,-670.08 535.65,-672.08 528.12,-674.08 524.1,-674.08 524.1,-674.08 497.9,-674.08 497.9,-674.08 493.88,-674.08 486.35,-672.08 482.86,-670.08 482.86,-670.08 466.93,-660.99 466.93,-660.99 463.44,-658.99 459.94,-652.96 459.94,-648.94 459.94,-648.94 459.94,-640.88 459.94,-640.88 459.94,-636.85 463.44,-630.83 466.93,-628.83 466.93,-628.83 482.86,-619.74 482.86,-619.74 486.35,-617.74 493.88,-615.74 497.9,-615.74 497.9,-615.74 524.1,-615.74 524.1,-615.74 528.12,-615.74 535.65,-617.74 539.14,-619.74 539.14,-619.74 555.07,-628.83 555.07,-628.83 558.56,-630.83 562.06,-636.85 562.06,-640.88"/>
<text text-anchor="middle" x="511" y="-648.71" font-family="Times,serif" font-size="14.00">Below0</text>
<text text-anchor="middle" x="511" y="-633.71" font-family="Times,serif" font-size="14.00">temp &lt; 0</text>
</g>
<!-- Liquid_Over100&#45;&gt;Liquid_Below0 -->
<g id="edge23" class="edge">
<title>Liquid_Over100&#45;&gt;Liquid_Below0</title>
<path fill="none" stroke="black" stroke-dasharray="1,5" d="M553.03,-722.24C553.03,-722.24 553.03,-672.24 553.03,-672.24"/>
<polygon fill="black" stroke="black" points="556.53,-672.24 553.03,-662.24 549.53,-672.24 556.53,-672.24"/>
<text text-anchor="middle" x="540.03" y="-686.04" font-family="Times,serif" font-size="14.00">false</text>
</g>
<!-- Liquid_Below0&#45;&gt;Solid -->
<g id="edge24" class="edge">
<title>Liquid_Below0&#45;&gt;Solid</title>
<path fill="none" stroke="black" stroke-dasharray="5,2" d="M520.14,-615.8C520.14,-608.65 520.14,-603 520.14,-603 520.14,-603 737.62,-603 737.62,-603 737.62,-603 737.62,-364.7 737.62,-364.7"/>
<polygon fill="black" stroke="black" points="741.12,-364.7 737.62,-354.7 734.12,-364.7 741.12,-364.7"/>
<text text-anchor="middle" x="726.62" y="-602.79" font-family="Times,serif" font-size="14.00">true</text>
</g>
<!-- Liquid_Below0&#45;&gt;Liquid -->
<g id="edge25" class="edge">
<title>Liquid_Below0&#45;&gt;Liquid</title>
<path fill="none" stroke="black" d="M471.72,-663.99C471.72,-730.79 471.72,-950 471.72,-950 471.72,-950 471.12,-950 471.12,-950"/>
<polygon fill="black" stroke="black" points="475.71,-946.5 465.71,-950 475.71,-953.5 475.71,-946.5"/>
<text text-anchor="middle" x="452.72" y="-811.1" font-family="Times,serif" font-size="14.00">default</text>
</g>
<!-- Plasma_OutOfWater&#45;&gt;Exit -->
<g id="edge3" class="edge">
<title>Plasma_OutOfWater&#45;&gt;Exit</title>
<path fill="none" stroke="coral" d="M237.52,-221.62C237.52,-207.54 237.52,-170 237.52,-170 237.52,-170 604.22,-170 604.22,-170 604.22,-170 604.22,-161.36 604.22,-161.36"/>
<polygon fill="coral" stroke="coral" points="607.72,-161.36 604.22,-151.36 600.72,-161.36 607.72,-161.36"/>
<text text-anchor="middle" x="369.38" y="-173.8" font-family="Times,serif" font-size="14.00" fill="coral">interrupted</text>
</g>
<!-- Plasma_unreachable -->
<g id="node17" class="node">
<title>Plasma_unreachable</title>
<path fill="white" stroke="black" d="M217.09,-121.03C217.09,-121.03 217.09,-126 217.09,-126 217.09,-128.49 214.65,-131.46 212.22,-131.95 212.22,-131.95 169.19,-140.54 169.19,-140.54 166.75,-141.03 161.83,-141.52 159.35,-141.52 159.35,-141.52 94.65,-141.52 94.65,-141.52 92.17,-141.52 87.25,-141.03 84.81,-140.54 84.81,-140.54 41.78,-131.95 41.78,-131.95 39.35,-131.46 36.91,-128.49 36.91,-126 36.91,-126 36.91,-121.03 36.91,-121.03 36.91,-118.55 39.35,-115.57 41.78,-115.09 41.78,-115.09 84.81,-106.49 84.81,-106.49 87.25,-106 92.17,-105.52 94.65,-105.52 94.65,-105.52 159.35,-105.52 159.35,-105.52 161.83,-105.52 166.75,-106 169.19,-106.49 169.19,-106.49 212.22,-115.09 212.22,-115.09 214.65,-115.57 217.09,-118.55 217.09,-121.03"/>
<path fill="none" stroke="black" d="M221.09,-119.94C221.09,-119.94 221.09,-127.09 221.09,-127.09 221.09,-130.67 217.58,-134.95 214.08,-135.65 214.08,-135.65 171.73,-144.11 171.73,-144.11 168.22,-144.81 161.13,-145.52 157.56,-145.52 157.56,-145.52 96.44,-145.52 96.44,-145.52 92.87,-145.52 85.78,-144.81 82.27,-144.11 82.27,-144.11 39.92,-135.65 39.92,-135.65 36.42,-134.95 32.91,-130.67 32.91,-127.09 32.91,-127.09 32.91,-119.94 32.91,-119.94 32.91,-116.36 36.42,-112.08 39.92,-111.38 39.92,-111.38 82.27,-102.92 82.27,-102.92 85.78,-102.22 92.87,-101.52 96.44,-101.52 96.44,-101.52 157.56,-101.52 157.56,-101.52 161.13,-101.52 168.22,-102.22 171.73,-102.92 171.73,-102.92 214.08,-111.38 214.08,-111.38 217.58,-112.08 221.09,-116.36 221.09,-119.94"/>
<text text-anchor="middle" x="127" y="-119.82" font-family="Times,serif" font-size="14.00">Plasma_unreachable</text>
</g>
<!-- Plasma_OutOfWater&#45;&gt;Plasma_unreachable -->
<g id="edge4" class="edge">
<title>Plasma_OutOfWater&#45;&gt;Plasma_unreachable</title>
<path fill="none" stroke="grey" stroke-dasharray="1,5" d="M127,-188.67C127,-188.67 127,-155.65 127,-155.65"/>
<polygon fill="grey" stroke="grey" points="130.5,-155.65 127,-145.65 123.5,-155.65 130.5,-155.65"/>
<text text-anchor="middle" x="94" y="-175.96" font-family="Times,serif" font-size="14.00">unreachable</text>
</g>
<!-- Gas_OutOfWater&#45;&gt;Exit -->
<g id="edge6" class="edge">
<title>Gas_OutOfWater&#45;&gt;Exit</title>
<path fill="none" stroke="coral" d="M729.52,-541C747.81,-541 760.64,-541 760.64,-541 760.64,-541 760.64,-133 760.64,-133 760.64,-133 651.93,-133 651.93,-133"/>
<polygon fill="coral" stroke="coral" points="651.93,-129.5 641.93,-133 651.93,-136.5 651.93,-129.5"/>
<text text-anchor="middle" x="790.64" y="-302" font-family="Times,serif" font-size="14.00" fill="coral">interrupted</text>
</g>
<!-- Gas_OutOfWater&#45;&gt;Gas_Below0 -->
<g id="edge7" class="edge">
<title>Gas_OutOfWater&#45;&gt;Gas_Below0</title>
<path fill="none" stroke="black" d="M659,-519.96C659,-519.96 659,-478 659,-478"/>
<polygon fill="black" stroke="black" points="662.5,-478 659,-468 655.5,-478 662.5,-478"/>
<text text-anchor="middle" x="625" y="-487.78" font-family="Times,serif" font-size="14.00">normal flow</text>
</g>
<!-- Solid_OutOfWater&#45;&gt;Exit -->
<g id="edge13" class="edge">
<title>Solid_OutOfWater&#45;&gt;Exit</title>
<path fill="none" stroke="coral" d="M623.78,-191.59C623.78,-191.59 623.78,-161.47 623.78,-161.47"/>
<polygon fill="coral" stroke="coral" points="627.28,-161.47 623.78,-151.47 620.28,-161.47 627.28,-161.47"/>
<text text-anchor="middle" x="593.78" y="-165.33" font-family="Times,serif" font-size="14.00" fill="coral">interrupted</text>
</g>
<!-- Solid_OutOfWater&#45;&gt;Solid_Between0and100 -->
<g id="edge14" class="edge">
<title>Solid_OutOfWater&#45;&gt;Solid_Between0and100</title>
<path fill="none" stroke="black" d="M526.96,-214.6C526.96,-214.6 526.96,-155.51 526.96,-155.51"/>
<polygon fill="black" stroke="black" points="530.46,-155.51 526.96,-145.51 523.46,-155.51 530.46,-155.51"/>
<text text-anchor="middle" x="492.96" y="-173.86" font-family="Times,serif" font-size="14.00">normal flow</text>
</g>
<!-- Liquid_OutOfWater&#45;&gt;Exit -->
<g id="edge20" class="edge">
<title>Liquid_OutOfWater&#45;&gt;Exit</title>
<path fill="none" stroke="coral" d="M731.67,-842C758.06,-842 778.04,-842 778.04,-842 778.04,-842 778.04,-113 778.04,-113 778.04,-113 651.46,-113 651.46,-113"/>
<polygon fill="coral" stroke="coral" points="651.46,-109.5 641.46,-113 651.46,-116.5 651.46,-109.5"/>
<text text-anchor="middle" x="748.04" y="-441.19" font-family="Times,serif" font-size="14.00" fill="coral">interrupted</text>
</g>
<!-- Liquid_OutOfWater&#45;&gt;Liquid_Over100 -->
<g id="edge21" class="edge">
<title>Liquid_OutOfWater&#45;&gt;Liquid_Over100</title>
<path fill="none" stroke="black" d="M605,-804.07C605,-804.07 605,-778.31 605,-778.31"/>
<polygon fill="black" stroke="black" points="608.5,-778.31 605,-768.31 601.5,-778.31 608.5,-778.31"/>
<text text-anchor="middle" x="571" y="-779.99" font-family="Times,serif" font-size="14.00">normal flow</text>
</g>
</g>
</svg>
